<mxfile host="app.diagrams.net" modified="2024-04-04T22:15:35.856Z" agent="Mozilla/5.0 (Windows NT 10.0; Win64; x64) AppleWebKit/537.36 (KHTML, like Gecko) Chrome/123.0.0.0 Safari/537.36" version="24.2.2" etag="eOKHsJj0SAatpDVvqz6I" type="github">
  <diagram name="PÃ¡gina-1" id="clkE-R1JUzVtcAEj5SpB">
    <mxGraphModel>
      <root>
        <mxCell id="0" />
        <mxCell id="1" parent="0" />
      </root>
    </mxGraphModel>
  </diagram>
</mxfile>
